<svg xmlns="http://www.w3.org/2000/svg" xmlns:xlink="http://www.w3.org/1999/xlink" fill="none" stroke="none" stroke-linecap="square" stroke-miterlimit="10" version="1.1" viewBox="0 0 960 720"><clipPath id="p.0"><path d="m0 0l960.0 0l0 720.0l-960.0 0l0 -720.0z" clip-rule="nonzero"/></clipPath><g clip-path="url(#p.0)"><path fill="currentColor" fill-opacity="0" fill-rule="evenodd" d="m0 0l960.0 0l0 720.0l-960.0 0z"/><path fill="currentColor" fill-opacity="0" fill-rule="evenodd" d="m0 693.3746c103.17983 -185.86133 169.54166 -387.6846 226.8323 -588.98016c42.894928 -150.7149 -183.97818 317.59485 -106.73468 456.75818c58.738052 105.82361 128.08733 -206.68579 186.8068 -312.51776c16.032959 -28.896667 -10.0954895 63.99434 -13.341827 96.16664c-9.476868 93.91876 -24.187408 229.6735 66.70917 276.46237c31.139282 16.02887 73.516174 -21.213745 93.41397 -48.092834c92.1297 -124.45413 66.70917 -295.13324 66.70917 -444.72067c0 -32.055542 -25.162567 -118.83331 0 -96.166626"/><path fill-rule="evenodd" stroke="currentColor" stroke-linecap="butt" stroke-linejoin="round" stroke-width="60" d="m0 693.3746c103.17983 -185.86133 169.54166 -387.6846 226.8323 -588.98016c42.894928 -150.7149 -183.97818 317.59485 -106.73468 456.75818c58.738052 105.82361 128.08733 -206.68579 186.8068 -312.51776c16.032959 -28.896667 -10.0954895 63.99434 -13.341827 96.16664c-9.476868 93.91876 -24.187408 229.6735 66.70917 276.46237c31.139282 16.02887 73.516174 -21.213745 93.41397 -48.092834c92.1297 -124.45413 66.70917 -295.13324 66.70917 -444.72067c0 -32.055542 -25.162567 -118.83331 0 -96.166626"/><path fill="currentColor" fill-opacity="0" fill-rule="evenodd" d="m370.0394 761.2823c132.92691 -229.41852 324.99313 -459.56476 324.99313 -709.1647c0 -21.66657 -34.93091 14.463718 -32.496765 36.055347c14.434692 128.03864 24.47638 127.491165 65.019226 252.42549c22.896545 70.55664 86.922 155.98181 32.496704 216.3511c-48.176514 53.43811 -308.19373 65.447876 -259.99963 12.018494"/><path fill-rule="evenodd" stroke="currentColor" stroke-linecap="butt" stroke-linejoin="round" stroke-width="60" d="m370.0394 761.2823c132.92691 -229.41852 324.99313 -459.56476 324.99313 -709.1647c0 -21.66657 -34.93091 14.463718 -32.496765 36.055347c14.434692 128.03864 24.47638 127.491165 65.019226 252.42549c22.896545 70.55664 86.922 155.98181 32.496704 216.3511c-48.176514 53.43811 -308.19373 65.447876 -259.99963 12.018494"/></g></svg>